<svg version="1.0" xmlns="http://www.w3.org/2000/svg" width="100.000000" height="100.000000" viewBox="0 0 100.000000 100.000000" preserveAspectRatio="xMidYMid meet"><g transform="translate(0.000000,100.000000) scale(0.100000,-0.100000)" fill="rgba(0, 0, 0, 1)" stroke="none"><path d="M395 945 c-66 -31 -126 -109 -155 -203 -36 -115 -23 -281 28 -377 10 -19 15 -48 13 -77 -2 -36 2 -51 18 -67 28 -28 93 -29 121 -1 13 13 20 33 20 60 0 51 -27 80 -76 80 -33 0 -37 3 -62 58 -36 76 -43 222 -16 309 35 109 112 183 194 183 87 0 165 -79 196 -199 14 -55 23 -72 42 -81 25 -11 25 -11 19 37 -14 117 -89 238 -172 277 -41 20 -130 20 -170 1z m-10 -665 c0 -18 -6 -26 -23 -28 -13 -2 -25 3 -28 12 -10 26 4 48 28 44 17 -2 23 -10 23 -28z"/><path d="M380 680 c-13 -13 -20 -33 -20 -60 0 -54 27 -80 80 -80 31 0 47 6 65 26 22 24 30 26 75 22 70 -7 189 -68 249 -128 130 -130 138 -291 17 -349 -53 -26 -148 -28 -222 -4 -44 13 -56 14 -68 3 -26 -20 -19 -27 46 -49 69 -24 184 -28 239 -10 91 31 139 100 139 201 0 112 -72 227 -191 307 -67 45 -170 81 -230 81 -21 0 -39 5 -39 10 0 24 -41 50 -80 50 -27 0 -47 -7 -60 -20z m85 -60 c0 -18 -6 -26 -23 -28 -24 -4 -38 18 -28 44 3 9 15 14 28 12 17 -2 23 -10 23 -28z"/><path d="M132 492 c-161 -162 -148 -382 27 -441 19 -6 67 -11 107 -11 159 0 334 105 405 243 11 20 26 37 34 37 29 0 55 38 55 80 0 53 -27 80 -80 80 -53 0 -80 -27 -80 -80 0 -26 7 -47 19 -59 19 -19 19 -20 -19 -73 -106 -146 -316 -221 -445 -158 -115 56 -116 208 0 334 28 31 35 46 33 70 l-3 31 -53 -53z m573 -92 c0 -18 -6 -26 -23 -28 -13 -2 -25 3 -28 12 -10 26 4 48 28 44 17 -2 23 -10 23 -28z"/></g></svg>
